<svg id="insta_icon" xmlns="http://www.w3.org/2000/svg" width="26" height="26" viewBox="0 0 26 26">
  <circle id="Ellipse_475" data-name="Ellipse 475" cx="13" cy="13" r="13" fill="#fff"/>
  <path id="Union_25" data-name="Union 25" d="M2.922,11.742a3.053,3.053,0,0,1-2.111-.758A2.984,2.984,0,0,1,0,8.82V2.868A2.958,2.958,0,0,1,.757.757,2.958,2.958,0,0,1,2.868,0H8.82a2.9,2.9,0,0,1,2.164.811,3.054,3.054,0,0,1,.758,2.111V8.874a2.771,2.771,0,0,1-.812,2.11,2.957,2.957,0,0,1-2.11.758Zm-.758-5.9a3.707,3.707,0,0,0,7.414,0,3.73,3.73,0,0,0-3.734-3.68A3.684,3.684,0,0,0,2.164,5.844ZM8.82,2a.865.865,0,1,0,1.731,0A.865.865,0,1,0,8.82,2ZM3.463,5.844A2.381,2.381,0,1,1,5.844,8.225,2.382,2.382,0,0,1,3.463,5.844Z" transform="translate(7 7)" fill="#333"/>
</svg>
