<svg xmlns="http://www.w3.org/2000/svg" width="24" height="24" viewBox="0 0 24 24">
  <path id="_5279114_linkedin_network_social_network_linkedin_logo_icon" data-name="5279114_linkedin_network_social network_linkedin logo_icon" d="M12,0A12,12,0,1,1,0,12,12.006,12.006,0,0,1,12,0ZM8.248,18.744V9.373H5.133v9.371Zm11.232,0V13.37c0-2.879-1.537-4.218-3.586-4.218A3.094,3.094,0,0,0,13.087,10.7V9.373H9.972c.041.879,0,9.371,0,9.371h3.115V13.51a2.129,2.129,0,0,1,.1-.76,1.7,1.7,0,0,1,1.6-1.139c1.127,0,1.578.86,1.578,2.119v5.014ZM6.712,4.854A1.624,1.624,0,1,0,6.67,8.092h.02a1.624,1.624,0,1,0,.021-3.239Z" fill="#6f6f6f" fill-rule="evenodd"/>
</svg>
