<svg id="search_icon" xmlns="http://www.w3.org/2000/svg" width="22.722" height="22.722" viewBox="0 0 22.722 22.722">
  <path id="search_icon-2" data-name="search_icon" d="M27.055,28.672,21.64,23.256a8.345,8.345,0,0,1-2.651,1.534,9.372,9.372,0,0,1-3.219.549A9.429,9.429,0,0,1,8.84,22.5,9.34,9.34,0,0,1,6,15.645,9.34,9.34,0,0,1,8.84,8.79a9.384,9.384,0,0,1,6.892-2.84,9.278,9.278,0,0,1,6.835,2.84,9.372,9.372,0,0,1,2.821,6.854,9.446,9.446,0,0,1-.53,3.143,9.612,9.612,0,0,1-1.591,2.84l5.453,5.377Zm-11.323-5.6a7.087,7.087,0,0,0,5.226-2.177,7.181,7.181,0,0,0,2.159-5.245A7.181,7.181,0,0,0,20.958,10.4a7.087,7.087,0,0,0-5.226-2.177A7.193,7.193,0,0,0,10.45,10.4a7.149,7.149,0,0,0-2.177,5.245,7.149,7.149,0,0,0,2.177,5.245,7.193,7.193,0,0,0,5.283,2.177Z" transform="translate(-6 -5.95)" fill="#6f6f6f"/>
</svg>
