<svg xmlns="http://www.w3.org/2000/svg" width="24" height="24" viewBox="0 0 24 24">
  <g id="insta_icon" transform="translate(0.222 -0.111)">
    <g id="_294709_circle_twitter_icon" data-name="294709_circle_twitter_icon" transform="translate(-0.222 0.111)">
      <circle id="Ellipse_2899" data-name="Ellipse 2899" cx="12" cy="12" r="12" fill="#fff"/>
      <g id="Group_4634" data-name="Group 4634" transform="translate(5.45 6.4)">
        <g id="Group_4633" data-name="Group 4633">
          <path id="Path_9960" data-name="Path 9960" d="M23.85,14.1a4.008,4.008,0,0,1-1.5.45A2.786,2.786,0,0,0,23.5,13a5.784,5.784,0,0,1-1.7.7,2.552,2.552,0,0,0-1.9-.9,2.748,2.748,0,0,0-2.65,2.85,2.851,2.851,0,0,0,.05.65,7.319,7.319,0,0,1-5.45-2.95,2.713,2.713,0,0,0-.35,1.45,2.844,2.844,0,0,0,1.15,2.35,2.407,2.407,0,0,1-1.2-.35v.05a2.865,2.865,0,0,0,2.1,2.8,2.951,2.951,0,0,1-.7.1,1.7,1.7,0,0,1-.5-.05,2.6,2.6,0,0,0,2.45,1.95,5.106,5.106,0,0,1-3.25,1.2,3.076,3.076,0,0,1-.65-.05,7.1,7.1,0,0,0,4.05,1.3c4.85,0,7.5-4.3,7.5-8.05V15.7A5.974,5.974,0,0,0,23.85,14.1Z" transform="translate(-10.9 -12.8)" fill="#333"/>
        </g>
      </g>
    </g>
  </g>
</svg>
